<mxfile host="app.diagrams.net" modified="2023-12-13T22:11:37.540Z" agent="Mozilla/5.0 (Windows NT 10.0; Win64; x64) AppleWebKit/537.36 (KHTML, like Gecko) Chrome/120.0.0.0 Safari/537.36" etag="FiXDCXVN9UZ9Jjqr3ZjI" version="22.1.8" type="device">
  <diagram name="Page-1" id="F3PHxVKM1yOQ9DfEnaqc">
    <mxGraphModel dx="2074" dy="1150" grid="1" gridSize="10" guides="1" tooltips="1" connect="1" arrows="1" fold="1" page="1" pageScale="1" pageWidth="827" pageHeight="1169" background="none" math="0" shadow="0">
      <root>
        <mxCell id="0" />
        <mxCell id="1" parent="0" />
        <mxCell id="1IW16SQAIGbm7M17Fada-5" value="&lt;font&gt;Docker&lt;/font&gt;" style="swimlane;whiteSpace=wrap;html=1;fontColor=#40A140;strokeColor=#40A140;labelBackgroundColor=none;fillColor=none;" parent="1" vertex="1">
          <mxGeometry x="80" y="40" width="560" height="510" as="geometry" />
        </mxCell>
        <mxCell id="1IW16SQAIGbm7M17Fada-4" value="&lt;font&gt;Minikube&lt;/font&gt;" style="swimlane;whiteSpace=wrap;html=1;fontColor=#40A140;strokeColor=#40A140;labelBackgroundColor=none;fillColor=none;" parent="1IW16SQAIGbm7M17Fada-5" vertex="1">
          <mxGeometry x="40" y="60" width="480" height="400" as="geometry" />
        </mxCell>
        <mxCell id="1IW16SQAIGbm7M17Fada-8" value="" style="endArrow=classic;html=1;rounded=0;entryX=1;entryY=0.5;entryDx=0;entryDy=0;fontColor=#40A140;strokeColor=#40A140;labelBackgroundColor=none;" parent="1IW16SQAIGbm7M17Fada-4" target="w03_aW8ywr21E0_0-r5e-1" edge="1">
          <mxGeometry width="50" height="50" relative="1" as="geometry">
            <mxPoint x="600" y="90" as="sourcePoint" />
            <mxPoint x="-190" y="-135" as="targetPoint" />
          </mxGeometry>
        </mxCell>
        <mxCell id="1IW16SQAIGbm7M17Fada-9" value="&lt;b&gt;localhost&lt;/b&gt;" style="edgeLabel;html=1;align=center;verticalAlign=middle;resizable=0;points=[];fontColor=#40A140;fontSize=14;labelBackgroundColor=none;" parent="1IW16SQAIGbm7M17Fada-8" vertex="1" connectable="0">
          <mxGeometry x="-0.4491" relative="1" as="geometry">
            <mxPoint x="43" y="-10" as="offset" />
          </mxGeometry>
        </mxCell>
        <mxCell id="fz3nPnazKkWcJA0CuhD2-5" value="&lt;font&gt;Deployment&lt;/font&gt;" style="swimlane;whiteSpace=wrap;html=1;fontColor=#40A140;strokeColor=#40A140;labelBackgroundColor=none;fillColor=none;" parent="1IW16SQAIGbm7M17Fada-4" vertex="1">
          <mxGeometry x="40" y="160" width="400" height="210" as="geometry" />
        </mxCell>
        <mxCell id="fz3nPnazKkWcJA0CuhD2-3" value="&lt;font&gt;Pod&lt;/font&gt;" style="swimlane;whiteSpace=wrap;html=1;fontColor=#40A140;strokeColor=#40A140;labelBackgroundColor=none;fillColor=none;" parent="fz3nPnazKkWcJA0CuhD2-5" vertex="1">
          <mxGeometry x="35" y="50" width="145" height="135" as="geometry" />
        </mxCell>
        <mxCell id="fz3nPnazKkWcJA0CuhD2-4" value="&lt;font&gt;&lt;b&gt;ktor&lt;/b&gt;&lt;/font&gt;" style="ellipse;whiteSpace=wrap;html=1;aspect=fixed;fontColor=#40A140;strokeColor=#40A140;labelBackgroundColor=none;fillColor=none;" parent="fz3nPnazKkWcJA0CuhD2-3" vertex="1">
          <mxGeometry x="32.5" y="37.5" width="80" height="80" as="geometry" />
        </mxCell>
        <mxCell id="1IW16SQAIGbm7M17Fada-6" value="&lt;font&gt;Pod&lt;/font&gt;" style="swimlane;whiteSpace=wrap;html=1;fontColor=#40A140;strokeColor=#47B347;labelBackgroundColor=none;fillColor=none;" parent="fz3nPnazKkWcJA0CuhD2-5" vertex="1">
          <mxGeometry x="220" y="50" width="145" height="135" as="geometry" />
        </mxCell>
        <mxCell id="1IW16SQAIGbm7M17Fada-7" value="&lt;font&gt;&lt;b&gt;ktor&lt;/b&gt;&lt;/font&gt;" style="ellipse;whiteSpace=wrap;html=1;aspect=fixed;fontColor=#40A140;strokeColor=#40A140;labelBackgroundColor=none;fillColor=none;" parent="1IW16SQAIGbm7M17Fada-6" vertex="1">
          <mxGeometry x="32.5" y="37.5" width="80" height="80" as="geometry" />
        </mxCell>
        <mxCell id="w03_aW8ywr21E0_0-r5e-2" style="edgeStyle=orthogonalEdgeStyle;rounded=0;orthogonalLoop=1;jettySize=auto;html=1;entryX=0.5;entryY=0;entryDx=0;entryDy=0;strokeColor=#40A140;" parent="1IW16SQAIGbm7M17Fada-4" source="w03_aW8ywr21E0_0-r5e-1" target="fz3nPnazKkWcJA0CuhD2-5" edge="1">
          <mxGeometry relative="1" as="geometry" />
        </mxCell>
        <mxCell id="w03_aW8ywr21E0_0-r5e-1" value="&lt;font color=&quot;#40a140&quot;&gt;&lt;b&gt;Service&lt;/b&gt;&lt;/font&gt;" style="rounded=0;whiteSpace=wrap;html=1;strokeColor=#40A140;fillColor=none;" parent="1IW16SQAIGbm7M17Fada-4" vertex="1">
          <mxGeometry x="180" y="60" width="120" height="60" as="geometry" />
        </mxCell>
      </root>
    </mxGraphModel>
  </diagram>
</mxfile>
